<svg xmlns="http://www.w3.org/2000/svg" xmlns:xlink="http://www.w3.org/1999/xlink" width="80" height="80" viewBox="0 0 80 80">
  <defs>
    <clipPath id="clip-path">
      <rect id="Rectangle_108" data-name="Rectangle 108" width="80" height="80" rx="8" transform="translate(0 0.7)" fill="#fff" stroke="#707070" stroke-width="1"/>
    </clipPath>
    <clipPath id="clip-path-2">
      <rect id="Rectangle_157" data-name="Rectangle 157" width="21.65" height="21.649" fill="none"/>
    </clipPath>
  </defs>
  <g id="Group_8" data-name="Group 8" transform="translate(0 -0.7)" clip-path="url(#clip-path)">
    <g id="Group_494" data-name="Group 494" transform="translate(-239.754 -826.211)">
      <g id="Group_495" data-name="Group 495" transform="translate(251.712 842.528)">
        <g id="Group_496" data-name="Group 496" transform="translate(0 0)">
          <path id="Path_126" data-name="Path 126" d="M51.816,14.69V10.783a3.06,3.06,0,0,0-3.06-3.06H33.2a3.06,3.06,0,0,1-2.163-.9L26.1,1.9A3.06,3.06,0,0,0,23.938,1H3.059A3.059,3.059,0,0,0,0,4.06V46.707a3.059,3.059,0,0,0,3.059,3.059H53.025a3.059,3.059,0,0,0,3.06-3.059V17.82a3.059,3.059,0,0,0-3.06-3.059H10.91a3.059,3.059,0,0,0-3.059,3.066l.065,31.94" transform="translate(0 -1)" fill="none" stroke="#051225" stroke-miterlimit="10" stroke-width="4"/>
        </g>
      </g>
      <g id="Group_507" data-name="Group 507" transform="translate(278.343 861.725)">
        <g id="Group_498" data-name="Group 498" transform="translate(1.718 1.91)">
          <g id="Group_497" data-name="Group 497" transform="translate(0 0)" clip-path="url(#clip-path-2)">
            <path id="Path_127" data-name="Path 127" d="M23.1,27.5a4.4,4.4,0,1,1,4.4-4.4,4.4,4.4,0,0,1-4.4,4.4m0-7.1A2.706,2.706,0,1,0,25.806,23.1,2.709,2.709,0,0,0,23.1,20.394" transform="translate(-12.275 -12.276)" fill="#061331"/>
            <path id="Path_128" data-name="Path 128" d="M11.3,19.958V17.9l1.27-.327a6.919,6.919,0,0,0,1.657-.665l1.117-.626,1.436,1.436.67-.67-1.41-1.41.709-1.14a6.9,6.9,0,0,0,.826-1.931L17.9,11.3h2.058v-.947H17.9l-.327-1.27a6.929,6.929,0,0,0-.665-1.657l-.626-1.117,1.436-1.436-.67-.67-1.41,1.41L14.5,4.9a6.922,6.922,0,0,0-1.931-.827L11.3,3.749V1.691h-.947V3.749l-1.27.327A6.915,6.915,0,0,0,7.15,4.9l-1.14.709L4.6,4.2l-.67.67L5.366,6.307,4.74,7.424a6.915,6.915,0,0,0-.665,1.657l-.327,1.27H1.691V11.3H3.749l.327,1.27A6.921,6.921,0,0,0,4.9,14.5l.709,1.14L4.2,17.049l.67.67,1.436-1.436,1.117.626a6.929,6.929,0,0,0,1.657.665l1.27.327v2.057Zm1.015,1.691H9.336a.676.676,0,0,1-.676-.677V19.211A8.6,8.6,0,0,1,6.6,18.384L5.35,19.632a.676.676,0,0,1-.957,0L2.288,17.527a.676.676,0,0,1,0-.957l1.178-1.178a8.609,8.609,0,0,1-1.028-2.4H.676A.677.677,0,0,1,0,12.313V9.336A.677.677,0,0,1,.676,8.66H2.437A8.6,8.6,0,0,1,3.265,6.6L2.017,5.35a.677.677,0,0,1,0-.957l2.1-2.1a.677.677,0,0,1,.957,0L6.257,3.466a8.614,8.614,0,0,1,2.4-1.029V.676A.676.676,0,0,1,9.336,0h2.977a.677.677,0,0,1,.677.676V2.438a8.619,8.619,0,0,1,2.4,1.028l1.178-1.178a.676.676,0,0,1,.957,0l2.105,2.1a.676.676,0,0,1,0,.957L18.384,6.6a8.6,8.6,0,0,1,.827,2.062h1.761a.677.677,0,0,1,.677.677v2.977a.677.677,0,0,1-.677.677H19.211a8.609,8.609,0,0,1-1.028,2.4l1.178,1.178a.677.677,0,0,1,0,.957l-2.1,2.105a.677.677,0,0,1-.957,0l-1.248-1.248a8.6,8.6,0,0,1-2.062.827v1.761a.677.677,0,0,1-.677.677" transform="translate(0 0)" fill="#08f"/>
          </g>
        </g>
      </g>
    </g>
  </g>
</svg>
