<svg xmlns="http://www.w3.org/2000/svg" xmlns:xlink="http://www.w3.org/1999/xlink" width="80" height="80" viewBox="0 0 80 80">
  <defs>
    <clipPath id="clip-path">
      <rect id="Rectangle_110" data-name="Rectangle 110" width="80" height="80" rx="8" fill="#fff" stroke="#707070" stroke-width="1"/>
    </clipPath>
    <clipPath id="clip-path-2">
      <rect id="Rectangle_157" data-name="Rectangle 157" width="33.136" height="33.135" fill="none"/>
    </clipPath>
  </defs>
  <g id="Group_10" data-name="Group 10" clip-path="url(#clip-path)">
    <g id="Group_508" data-name="Group 508" transform="translate(-175.8 -2860.129)">
      <g id="Group_505" data-name="Group 505" transform="translate(179.438 2884.432)">
        <g id="Group_506" data-name="Group 506" transform="translate(0 0)">
          <path id="Path_133" data-name="Path 133" d="M64.17,38.163l8.869,8.869A3.855,3.855,0,0,0,78.9,42.068l-4.578-6.421-2.655-5.565a9.752,9.752,0,0,0-6.586-5.3L50.778,21.445V37.8l4.986,1.425a4.17,4.17,0,0,1,2.141,1.443l6.461,8.272a12.8,12.8,0,0,0,5.883,4.211L92.42,60.865a4.912,4.912,0,0,0,3.572-9.144l-11.958-5.2" transform="translate(-41.52 -18.119)" fill="none" stroke="#08f" stroke-linecap="round" stroke-linejoin="round" stroke-width="4"/>
          <rect id="Rectangle_159" data-name="Rectangle 159" width="9.258" height="23.819" rx="4.629" transform="translate(0)" fill="none" stroke="#09111c" stroke-linecap="round" stroke-linejoin="round" stroke-width="4"/>
        </g>
      </g>
      <g id="Group_508-2" data-name="Group 508" transform="translate(219.026 2872.806)">
        <g id="Group_497" data-name="Group 497" transform="translate(0 0)" clip-path="url(#clip-path-2)">
          <path id="Path_127" data-name="Path 127" d="M25.433,32.165a6.731,6.731,0,1,1,6.73-6.731,6.739,6.739,0,0,1-6.73,6.731m0-10.873a4.142,4.142,0,1,0,4.142,4.142,4.147,4.147,0,0,0-4.142-4.142" transform="translate(-8.865 -8.866)" fill="#061331"/>
          <path id="Path_128" data-name="Path 128" d="M17.293,30.546V27.4l1.943-.5a10.59,10.59,0,0,0,2.536-1.018l1.71-.958,2.2,2.2,1.026-1.025-2.159-2.159,1.085-1.745A10.568,10.568,0,0,0,26.9,19.236l.5-1.943h3.149v-1.45H27.4L26.9,13.9a10.605,10.605,0,0,0-1.017-2.536l-.958-1.71,2.2-2.2L26.094,6.43,23.936,8.588,22.191,7.5a10.6,10.6,0,0,0-2.955-1.265l-1.943-.5V2.589h-1.45V5.738l-1.943.5A10.583,10.583,0,0,0,10.944,7.5L9.2,8.588,7.041,6.43,6.015,7.456l2.2,2.2-.958,1.71A10.584,10.584,0,0,0,6.238,13.9l-.5,1.943H2.589v1.45H5.738l.5,1.943A10.593,10.593,0,0,0,7.5,22.191l1.086,1.745L6.43,26.094l1.025,1.025,2.2-2.2,1.71.958A10.605,10.605,0,0,0,13.9,26.9l1.943.5v3.149Zm1.553,2.589H14.289A1.035,1.035,0,0,1,13.254,32.1V29.4A13.167,13.167,0,0,1,10.1,28.138l-1.91,1.91a1.035,1.035,0,0,1-1.464,0L3.5,26.826a1.035,1.035,0,0,1,0-1.464l1.8-1.8a13.176,13.176,0,0,1-1.574-3.677h-2.7A1.035,1.035,0,0,1,0,18.846V14.29a1.035,1.035,0,0,1,1.035-1.036h2.7A13.167,13.167,0,0,1,5,10.1l-1.91-1.91a1.036,1.036,0,0,1,0-1.464L6.308,3.5a1.037,1.037,0,0,1,1.465,0l1.8,1.8a13.184,13.184,0,0,1,3.678-1.574v-2.7A1.035,1.035,0,0,1,14.289,0h4.556a1.035,1.035,0,0,1,1.036,1.035v2.7A13.192,13.192,0,0,1,23.558,5.3l1.8-1.8a1.035,1.035,0,0,1,1.464,0l3.222,3.222a1.035,1.035,0,0,1,0,1.464l-1.91,1.91A13.167,13.167,0,0,1,29.4,13.254h2.7a1.036,1.036,0,0,1,1.036,1.036v4.556A1.036,1.036,0,0,1,32.1,19.881H29.4a13.176,13.176,0,0,1-1.574,3.677l1.8,1.8a1.036,1.036,0,0,1,0,1.464l-3.222,3.222a1.036,1.036,0,0,1-1.465,0l-1.91-1.91A13.163,13.163,0,0,1,19.881,29.4v2.7a1.036,1.036,0,0,1-1.036,1.036" transform="translate(0 0)" fill="#08f"/>
        </g>
      </g>
    </g>
  </g>
</svg>
