<svg xmlns="http://www.w3.org/2000/svg" xmlns:xlink="http://www.w3.org/1999/xlink" width="80" height="80" viewBox="0 0 80 80">
  <defs>
    <clipPath id="clip-path">
      <rect id="Rectangle_107" data-name="Rectangle 107" width="80" height="80" rx="8" fill="#061331" stroke="#707070" stroke-width="1"/>
    </clipPath>
  </defs>
  <g id="Mask_Group_7" data-name="Mask Group 7" clip-path="url(#clip-path)">
    <g id="Group_398" data-name="Group 398" transform="translate(-327 -850)">
      <g id="Rectangle_129" data-name="Rectangle 129" transform="translate(368 857)" fill="none" stroke="#061331" stroke-linejoin="round" stroke-width="4">
        <rect width="32" height="31" stroke="none"/>
        <rect x="2" y="2" width="28" height="27" fill="none"/>
      </g>
      <path id="Path_83" data-name="Path 83" d="M361.781,872H376V859.2" transform="translate(16)" fill="none" stroke="#061331" stroke-linecap="round" stroke-linejoin="round" stroke-width="4"/>
      <g id="Rectangle_130" data-name="Rectangle 130" transform="translate(378 877)" fill="none" stroke="#08f" stroke-linecap="round" stroke-linejoin="round" stroke-width="4">
        <rect width="16" height="5" stroke="none"/>
        <rect x="2" y="2" width="12" height="1" fill="none"/>
      </g>
      <g id="Group_169" data-name="Group 169" transform="translate(337 870.556)">
        <path id="Path_34" data-name="Path 34" d="M4597,10171h16v16" transform="translate(-4597 -10171)" fill="none" stroke="#061331" stroke-width="5"/>
        <path id="Path_35" data-name="Path 35" d="M4597,10187l16-16" transform="translate(-4597 -10171)" fill="none" stroke="#061331" stroke-width="5"/>
      </g>
    </g>
    <line id="Line_52" data-name="Line 52" x2="64" transform="translate(9 46)" fill="none" stroke="#061331" stroke-linecap="round" stroke-width="4"/>
    <line id="Line_53" data-name="Line 53" x2="64" transform="translate(9 62)" fill="none" stroke="#061331" stroke-linecap="round" stroke-width="4"/>
    <g id="Ellipse_17" data-name="Ellipse 17" transform="translate(12 49)" fill="#fff" stroke="#08f" stroke-width="4">
      <circle cx="5" cy="5" r="5" stroke="none"/>
      <circle cx="5" cy="5" r="3" fill="none"/>
    </g>
    <g id="Ellipse_18" data-name="Ellipse 18" transform="translate(28 49)" fill="#fff" stroke="#08f" stroke-width="4">
      <circle cx="5" cy="5" r="5" stroke="none"/>
      <circle cx="5" cy="5" r="3" fill="none"/>
    </g>
    <g id="Ellipse_19" data-name="Ellipse 19" transform="translate(44 49)" fill="#fff" stroke="#08f" stroke-width="4">
      <circle cx="5" cy="5" r="5" stroke="none"/>
      <circle cx="5" cy="5" r="3" fill="none"/>
    </g>
    <g id="Ellipse_20" data-name="Ellipse 20" transform="translate(60 49)" fill="#fff" stroke="#08f" stroke-width="4">
      <circle cx="5" cy="5" r="5" stroke="none"/>
      <circle cx="5" cy="5" r="3" fill="none"/>
    </g>
  </g>
</svg>
