<svg xmlns="http://www.w3.org/2000/svg" xmlns:xlink="http://www.w3.org/1999/xlink" width="80" height="80" viewBox="0 0 80 80">
  <defs>
    <clipPath id="clip-path">
      <path id="Path_58" data-name="Path 58" d="M8,0H72a8,8,0,0,1,8,8V72a8,8,0,0,1-8,8H8a8,8,0,0,1-8-8V8A8,8,0,0,1,8,0Z" fill="#fff" stroke="#707070" stroke-width="5"/>
    </clipPath>
  </defs>
  <g id="Mask_Group_9" data-name="Mask Group 9" clip-path="url(#clip-path)">
    <g id="Ellipse_21" data-name="Ellipse 21" transform="translate(29 21.7)" fill="none" stroke="#08f" stroke-width="5">
      <circle cx="6" cy="6" r="6" stroke="none"/>
      <circle cx="6" cy="6" r="3.5" fill="none"/>
    </g>
    <g id="Ellipse_22" data-name="Ellipse 22" transform="translate(43 13.7)" fill="none" stroke="#061331" stroke-width="5">
      <circle cx="6" cy="6" r="6" stroke="none"/>
      <circle cx="6" cy="6" r="3.5" fill="none"/>
    </g>
    <g id="Ellipse_23" data-name="Ellipse 23" transform="translate(31 3.7)" fill="none" stroke="#08f" stroke-width="5">
      <circle cx="6" cy="6" r="6" stroke="none"/>
      <circle cx="6" cy="6" r="3.5" fill="none"/>
    </g>
    <g id="Group_399" data-name="Group 399">
      <g id="Rectangle_133" data-name="Rectangle 133" transform="translate(28 29.7)" fill="#efefef" stroke="#08f" stroke-width="5">
        <rect width="24" height="48" rx="8" stroke="none"/>
        <rect x="2.5" y="2.5" width="19" height="43" rx="5.5" fill="none"/>
      </g>
      <g id="Rectangle_134" data-name="Rectangle 134" transform="translate(25 29.7)" fill="#efefef" stroke="#061331" stroke-width="5">
        <rect width="30" height="10" stroke="none"/>
        <rect x="2.5" y="2.5" width="25" height="5" fill="none"/>
      </g>
    </g>
  </g>
</svg>
