<svg xmlns="http://www.w3.org/2000/svg" xmlns:xlink="http://www.w3.org/1999/xlink" width="80" height="80" viewBox="0 0 80 80">
  <defs>
    <clipPath id="clip-path">
      <rect id="Rectangle_108" data-name="Rectangle 108" width="80" height="80" rx="8" transform="translate(0 0.7)" fill="#fff" stroke="#707070" stroke-width="1"/>
    </clipPath>
  </defs>
  <g id="Mask_Group_8" data-name="Mask Group 8" transform="translate(0 -0.7)" clip-path="url(#clip-path)">
    <g id="Group_459" data-name="Group 459" transform="translate(44.126 74.531) rotate(-133)">
      <g id="Group_461" data-name="Group 461" transform="translate(-9.294 -7.699)">
        <path id="Path_116" data-name="Path 116" d="M9.233,28.785V13.329a9.889,9.889,0,0,0-2.9-6.993L0,0" transform="translate(45.305 0)" fill="none" stroke="#051225" stroke-linecap="round" stroke-linejoin="round" stroke-width="4"/>
        <path id="Path_113" data-name="Path 113" d="M22.567,0H13.549L1.384,5.849a2.67,2.67,0,0,0,0,4.679l12.165,5.849H24.165" transform="translate(0 28.785)" fill="none" stroke="#08f" stroke-linecap="round" stroke-linejoin="round" stroke-width="4"/>
        <path id="Path_114" data-name="Path 114" d="M0,16.377H11.969V0H3.033" transform="translate(51.505 28.785)" fill="none" stroke="#08f" stroke-linecap="round" stroke-linejoin="round" stroke-width="4"/>
        <rect id="Rectangle_148" data-name="Rectangle 148" width="7.378" height="19.044" rx="3.689" transform="translate(22.956 26.735)" fill="none" stroke="#051225" stroke-linecap="round" stroke-linejoin="round" stroke-width="4"/>
        <path id="Path_115" data-name="Path 115" d="M21.315,0V2.2a8.444,8.444,0,0,1-8.444,8.444h0v4.939h5.124a3.33,3.33,0,0,1,3.32,3.32v.738a3.33,3.33,0,0,1-3.32,3.32H3.32A3.33,3.33,0,0,1,0,19.644v-7A6.276,6.276,0,0,1,1.194,8.958L7.686,0" transform="translate(16.398 0)" fill="none" stroke="#051225" stroke-linecap="round" stroke-linejoin="round" stroke-width="4"/>
        <rect id="Rectangle_149" data-name="Rectangle 149" width="7.378" height="19.044" rx="3.689" transform="translate(30.334 26.735)" fill="none" stroke="#051225" stroke-linecap="round" stroke-linejoin="round" stroke-width="4"/>
        <rect id="Rectangle_150" data-name="Rectangle 150" width="7.378" height="19.044" rx="3.689" transform="translate(37.712 26.735)" fill="none" stroke="#051225" stroke-linecap="round" stroke-linejoin="round" stroke-width="4"/>
        <rect id="Rectangle_151" data-name="Rectangle 151" width="7.378" height="19.044" rx="3.689" transform="translate(45.09 26.735)" fill="none" stroke="#051225" stroke-linecap="round" stroke-linejoin="round" stroke-width="4"/>
        <line id="Line_62" data-name="Line 62" y1="5.839" transform="translate(22.956 22.946)" fill="none" stroke="#051225" stroke-linecap="round" stroke-linejoin="round" stroke-width="4"/>
      </g>
    </g>
  </g>
</svg>
