<svg xmlns="http://www.w3.org/2000/svg" xmlns:xlink="http://www.w3.org/1999/xlink" width="80" height="80" viewBox="0 0 80 80">
  <defs>
    <clipPath id="clip-path">
      <rect id="Rectangle_108" data-name="Rectangle 108" width="80" height="80" rx="8" fill="#fff" stroke="#707070" stroke-width="1"/>
    </clipPath>
  </defs>
  <g id="Mask_Group_8" data-name="Mask Group 8" clip-path="url(#clip-path)">
    <g id="Group_462" data-name="Group 462" transform="translate(7.493 5.061)">
      <path id="Path_119" data-name="Path 119" d="M94.256,67.322H83.851l-5.2,9.011,5.2,9.011H94.256l5.2-9.011Z" transform="translate(-55.904 -47.853)" fill="none" stroke="#08f" stroke-linecap="round" stroke-linejoin="round" stroke-miterlimit="10" stroke-width="4"/>
      <g id="Group_463" data-name="Group 463">
        <path id="Path_120" data-name="Path 120" d="M94.256,5H83.851l-5.2,9.011,5.2,9.011H94.256l5.2-9.011Z" transform="translate(-55.904 -3.554)" fill="none" stroke="#08f" stroke-linejoin="round" stroke-miterlimit="10" stroke-width="4"/>
        <line id="Line_63" data-name="Line 63" x2="62.122" transform="translate(1.446 45.813)" fill="none" stroke="#061331" stroke-linecap="round" stroke-miterlimit="10" stroke-width="4"/>
        <path id="Path_121" data-name="Path 121" d="M5,179.2c4.436,0,4.436,4.623,8.873,4.623s4.437-4.623,8.874-4.623,4.437,4.623,8.874,4.623S36.059,179.2,40.5,179.2s4.437,4.623,8.875,4.623,4.438-4.623,8.876-4.623,4.438,4.623,8.876,4.623" transform="translate(-3.554 -127.38)" fill="none" stroke="#08f" stroke-linecap="round" stroke-miterlimit="10" stroke-width="4"/>
        <circle id="Ellipse_28" data-name="Ellipse 28" cx="4.049" cy="4.049" r="4.049" transform="translate(7.658 60.335)" fill="none" stroke="#08f" stroke-linecap="round" stroke-miterlimit="10" stroke-width="4"/>
        <circle id="Ellipse_29" data-name="Ellipse 29" cx="4.049" cy="4.049" r="4.049" transform="translate(21.801 60.335)" fill="none" stroke="#08f" stroke-linecap="round" stroke-miterlimit="10" stroke-width="4"/>
        <circle id="Ellipse_30" data-name="Ellipse 30" cx="4.049" cy="4.049" r="4.049" transform="translate(35.943 60.335)" fill="none" stroke="#08f" stroke-linecap="round" stroke-miterlimit="10" stroke-width="4"/>
        <circle id="Ellipse_31" data-name="Ellipse 31" cx="4.049" cy="4.049" r="4.049" transform="translate(50.086 60.335)" fill="none" stroke="#08f" stroke-linecap="round" stroke-miterlimit="10" stroke-width="4"/>
      </g>
      <path id="Path_117" data-name="Path 117" d="M40.312,36.161H29.907l-5.2,9.011,5.2,9.011H40.312l5.2-9.011Z" transform="translate(-17.56 -25.704)" fill="none" stroke="#061331" stroke-linecap="round" stroke-linejoin="round" stroke-miterlimit="10" stroke-width="4"/>
      <path id="Path_118" data-name="Path 118" d="M148.312,36.161H137.907l-5.2,9.011,5.2,9.011h10.405l5.2-9.011Z" transform="translate(-94.327 -25.704)" fill="none" stroke="#061331" stroke-linecap="round" stroke-linejoin="round" stroke-miterlimit="10" stroke-width="4"/>
    </g>
  </g>
</svg>
