<svg xmlns="http://www.w3.org/2000/svg" xmlns:xlink="http://www.w3.org/1999/xlink" width="80" height="80" viewBox="0 0 80 80">
  <defs>
    <clipPath id="clip-path">
      <path id="Path_58" data-name="Path 58" d="M8,0H72a8,8,0,0,1,8,8V72a8,8,0,0,1-8,8H8a8,8,0,0,1-8-8V8A8,8,0,0,1,8,0Z" fill="#fff" stroke="#707070" stroke-width="5"/>
    </clipPath>
  </defs>
  <g id="Group_9" data-name="Group 9" clip-path="url(#clip-path)">
    <g id="Group_464" data-name="Group 464" transform="translate(16.467 20.625) rotate(45)">
      <g id="Group_466" data-name="Group 466" transform="translate(0 0)">
        <path id="Path_122" data-name="Path 122" d="M28.878,18.264H9.132A9.132,9.132,0,1,1,9.132,0H28.878Z" transform="translate(0 0)" fill="none" stroke="#051225" stroke-miterlimit="10" stroke-width="4"/>
        <path id="Path_123" data-name="Path 123" d="M0,0H19.746a9.132,9.132,0,0,1,0,18.264H0Z" transform="translate(31.804 0)" fill="none" stroke="#08f" stroke-miterlimit="10" stroke-width="4"/>
      </g>
    </g>
    <g id="Group_465" data-name="Group 465" transform="translate(63.534 59.375) rotate(-135)">
      <g id="Group_466-2" data-name="Group 466" transform="translate(0 0)">
        <path id="Path_122-2" data-name="Path 122" d="M28.878,18.264H9.132A9.132,9.132,0,1,1,9.132,0H28.878Z" transform="translate(0 0)" fill="none" stroke="#051225" stroke-miterlimit="10" stroke-width="4"/>
        <path id="Path_123-2" data-name="Path 123" d="M0,0H19.746a9.132,9.132,0,0,1,0,18.264H0Z" transform="translate(31.804 0)" fill="none" stroke="#08f" stroke-miterlimit="10" stroke-width="4"/>
      </g>
    </g>
  </g>
</svg>
