<svg xmlns="http://www.w3.org/2000/svg" xmlns:xlink="http://www.w3.org/1999/xlink" width="80" height="80" viewBox="0 0 80 80">
  <defs>
    <clipPath id="clip-path">
      <rect id="Rectangle_108" data-name="Rectangle 108" width="80" height="80" rx="8" fill="#fff" stroke="#707070" stroke-width="1"/>
    </clipPath>
  </defs>
  <g id="Mask_Group_8" data-name="Mask Group 8" clip-path="url(#clip-path)">
    <g id="Group_311" data-name="Group 311" transform="translate(8 8)">
      <g id="Ellipse_4" data-name="Ellipse 4" transform="translate(19 19)" fill="none" stroke="#061331" stroke-width="5">
        <circle cx="13" cy="13" r="13" stroke="none"/>
        <circle cx="13" cy="13" r="10.5" fill="none"/>
      </g>
      <g id="Union_3" data-name="Union 3" fill="none">
        <path d="M27.6,64a2,2,0,0,1-2-2V56.793a25.431,25.431,0,0,1-6.1-2.445l-3.689,3.689a2,2,0,0,1-2.829,0L6.764,51.815a2,2,0,0,1,0-2.828L10.247,45.5a25.458,25.458,0,0,1-3.04-7.1H2a2,2,0,0,1-2-2V27.6a2,2,0,0,1,2-2H7.206a25.437,25.437,0,0,1,2.445-6.1L5.963,15.815a2,2,0,0,1,0-2.828l6.223-6.223a2,2,0,0,1,2.829,0L18.5,10.247a25.464,25.464,0,0,1,7.1-3.04V2a2,2,0,0,1,2-2h8.8a2,2,0,0,1,2,2V7.206a25.459,25.459,0,0,1,7.1,3.04l3.483-3.483a2,2,0,0,1,2.829,0l6.223,6.223a2,2,0,0,1,0,2.829L54.347,19.5a25.436,25.436,0,0,1,2.445,6.1H62a2,2,0,0,1,2,2v8.8a2,2,0,0,1-2,2H56.793a25.46,25.46,0,0,1-3.04,7.1l3.484,3.484a2,2,0,0,1,0,2.828l-6.223,6.223a2,2,0,0,1-2.829,0L44.5,54.348a25.436,25.436,0,0,1-6.1,2.445V62a2,2,0,0,1-2,2Z" stroke="none"/>
        <path d="M 33.39940643310547 59.00080108642578 L 33.39940643310547 52.91748046875 L 37.15304565429688 51.9512939453125 C 38.86095428466797 51.51169204711914 40.50897979736328 50.85053253173828 42.05135345458984 49.98618698120117 L 45.3541145324707 48.13534545898438 L 49.59945297241211 52.38068771362305 L 51.57923126220703 50.40090942382812 L 47.41052627563477 46.23220062255859 L 49.50679397583008 42.86214828491211 C 50.60968780517578 41.08906555175781 51.43183517456055 39.16854858398438 51.95040512084961 37.1539192199707 L 52.91658020019531 33.40029525756836 L 58.99900817871094 33.40029525756836 L 58.99900817871094 30.60049438476562 L 52.91662216186523 30.60049438476562 L 51.95047378540039 26.84679985046387 C 51.51079177856445 25.13853454589844 50.84967422485352 23.49042701721191 49.9854850769043 21.9482536315918 L 48.13471221923828 18.64552116394043 L 52.37978363037109 14.40044975280762 L 50.39955902099609 12.42022800445557 L 46.23123550415039 16.58852005004883 L 42.86116790771484 14.49220085144043 C 41.08815383911133 13.38930702209473 39.16765975952148 12.56716060638428 37.15303421020508 12.04858684539795 L 33.39940643310547 11.08240032196045 L 33.39940643310547 5.000000476837158 L 30.59959411621094 5.000000476837158 L 30.59959411621094 11.08240032196045 L 26.84596633911133 12.04858684539795 C 24.83132743835449 12.56716060638428 22.9106330871582 13.38942718505859 21.13724708557129 14.49253368377686 L 17.76716613769531 16.58885383605957 L 13.59944534301758 12.42112159729004 L 11.61966705322266 14.40090084075928 L 15.86427402496338 18.6455078125 L 14.01350021362305 21.94824028015137 C 13.14932727813721 23.49036026000977 12.48820686340332 25.13849449157715 12.04850006103516 26.84682655334473 L 11.08234024047852 30.60049438476562 L 5.000007152557373 30.60049438476562 L 5.000007152557373 33.40119934082031 L 11.08266067504883 33.40119934082031 L 12.0488338470459 37.15485382080078 C 12.56722068786621 39.16885375976562 13.38940715789795 41.08925247192383 14.49254035949707 42.86270904541016 L 16.58880615234375 46.23276138305664 L 12.42066669464111 50.40090179443359 L 14.4004430770874 52.38067626953125 L 18.64547348022461 48.13563919067383 L 21.94824600219727 49.98651885986328 C 23.49018096923828 50.85063934326172 25.13801956176758 51.51168060302734 26.8459529876709 51.9512939453125 L 30.59959411621094 52.91748046875 L 30.59959411621094 59.00080108642578 L 33.39940643310547 59.00080108642578 M 36.39960861206055 64.00080108642578 L 27.59940719604492 64.00080108642578 C 26.4951000213623 64.00080108642578 25.59959411621094 63.10530853271484 25.59959411621094 62.00099945068359 L 25.59959411621094 56.7934684753418 C 23.444580078125 56.23877334594727 21.40004730224609 55.41091918945312 19.50388717651367 54.34830856323242 L 15.81480693817139 58.03739929199219 C 15.03359603881836 58.8186149597168 13.76729011535645 58.8185920715332 12.98610019683838 58.03739929199219 L 6.763500213623047 51.81480026245117 C 5.982300281524658 51.03359985351562 5.982300281524658 49.76729202270508 6.763500213623047 48.98699951171875 L 10.24688720703125 45.50361251831055 C 8.895993232727051 43.33185577392578 7.860860347747803 40.94281387329102 7.206660270690918 38.40119934082031 L 1.999807000160217 38.40119934082031 C 0.8955003023147583 38.40119934082031 6.941324954823358e-06 37.50569534301758 6.941324954823358e-06 36.40050888061523 L 6.941324954823358e-06 27.60029411315918 C 6.941324954823358e-06 26.49600028991699 0.8955003023147583 25.60049438476562 1.999807000160217 25.60049438476562 L 7.206326961517334 25.60049438476562 C 7.761033535003662 23.44537353515625 8.589073181152344 21.40019989013672 9.651673316955566 19.50397300720215 L 5.962500095367432 15.81480026245117 C 5.182207107543945 15.03360080718994 5.182207107543945 13.76729393005371 5.962500095367432 12.98700046539307 L 12.18510055541992 6.764400482177734 C 12.96629905700684 5.983202457427979 14.23260688781738 5.983200550079346 15.01380729675293 6.764400482177734 L 18.49629974365234 10.24690723419189 C 20.66806030273438 8.895987510681152 23.05797958374023 7.860640525817871 25.59959411621094 7.206427097320557 L 25.59959411621094 1.999800562858582 C 25.59959411621094 0.8955072164535522 26.4951000213623 5.432128773463774e-07 27.59940719604492 5.432128773463774e-07 L 36.39960861206055 5.432128773463774e-07 C 37.50389862060547 5.432128773463774e-07 38.39940643310547 0.8955072164535522 38.39940643310547 1.999800562858582 L 38.39940643310547 7.206427097320557 C 40.94102096557617 7.860640525817871 43.33037948608398 8.89565372467041 45.50212860107422 10.24657344818115 L 48.98520660400391 6.76350736618042 C 49.76639556884766 5.982306957244873 51.0327033996582 5.982306957244873 51.81389999389648 6.76350736618042 L 58.0364990234375 12.98609352111816 C 58.81769943237305 13.76729393005371 58.81769943237305 15.03360080718994 58.0364990234375 15.81480026245117 L 54.34731292724609 19.50398635864258 C 55.409912109375 21.40021324157715 56.23796844482422 23.44537353515625 56.79265975952148 25.60049438476562 L 61.99920654296875 25.60049438476562 C 63.10350036621094 25.60049438476562 63.99900817871094 26.49600028991699 63.99900817871094 27.60029411315918 L 63.99900817871094 36.40050888061523 C 63.99900817871094 37.50479888916016 63.10350036621094 38.40029525756836 61.99920654296875 38.40029525756836 L 56.79256820678711 38.40029525756836 C 56.13835525512695 40.94192123413086 55.10334014892578 43.33129501342773 53.75244522094727 45.50305557250977 L 57.23640823364258 48.98699951171875 C 58.01670074462891 49.76729202270508 58.01670074462891 51.03359985351562 57.23640823364258 51.81480026245117 L 51.0138053894043 58.03739929199219 C 50.23259735107422 58.8186149597168 48.96628570556641 58.8185920715332 48.18510055541992 58.03739929199219 L 44.49568557739258 54.34798812866211 C 42.59952545166016 55.41058731079102 40.55442047119141 56.23877334594727 38.39940643310547 56.7934684753418 L 38.39940643310547 62.00099945068359 C 38.39940643310547 63.10530853271484 37.50389862060547 64.00080108642578 36.39960861206055 64.00080108642578 Z" stroke="none" fill="#08f"/>
      </g>
    </g>
  </g>
</svg>
