<svg xmlns="http://www.w3.org/2000/svg" xmlns:xlink="http://www.w3.org/1999/xlink" width="80" height="80" viewBox="0 0 80 80">
  <defs>
    <clipPath id="clip-path">
      <rect id="Rectangle_110" data-name="Rectangle 110" width="80" height="80" rx="8" fill="#fff" stroke="#707070" stroke-width="1"/>
    </clipPath>
  </defs>
  <g id="Mask_Group_10" data-name="Mask Group 10" clip-path="url(#clip-path)">
    <g id="Group_313" data-name="Group 313" transform="translate(8 8)">
      <g id="Subtraction_2" data-name="Subtraction 2" fill="none">
        <path d="M25,28H3a3,3,0,0,1-3-3V3A3,3,0,0,1,3,0H25a3,3,0,0,1,3,3V7a7,7,0,1,0,0,14v4A3,3,0,0,1,25,28Z" stroke="none"/>
        <path d="M 20.07069969177246 22.99990081787109 C 17.57597541809082 20.79947280883789 15.99970149993896 17.58040237426758 15.99970149993896 14.00040054321289 C 15.99970149993896 10.42025184631348 17.57653045654297 7.200706958770752 20.07196426391602 5.000000476837158 L 5.000001430511475 5.000000476837158 L 5.000001430511475 22.99990081787109 L 20.07069969177246 22.99990081787109 M 24.99930191040039 27.99990081787109 L 3.000601291656494 27.99990081787109 C 1.3460613489151 27.99990081787109 1.362609850730223e-06 26.65423965454102 1.362609850730223e-06 25.00020027160645 L 1.362609850730223e-06 2.999700307846069 C 1.362609850730223e-06 1.345660448074341 1.3460613489151 4.089355343239731e-07 3.000601291656494 4.089355343239731e-07 L 24.99930191040039 4.089355343239731e-07 C 26.65384101867676 4.089355343239731e-07 27.99990081787109 1.345660448074341 27.99990081787109 2.999700307846069 L 27.99990081787109 7.000200271606445 C 24.13870048522949 7.001200199127197 20.99970054626465 10.14103031158447 20.99970054626465 14.00040054321289 C 20.99970054626465 17.85983085632324 24.13998222351074 20.99970054626465 27.99990081787109 20.99970054626465 L 27.99990081787109 25.00020027160645 C 27.99990081787109 26.65423965454102 26.65384101867676 27.99990081787109 24.99930191040039 27.99990081787109 Z" stroke="none" fill="#08f"/>
      </g>
      <g id="Subtraction_3" data-name="Subtraction 3" transform="translate(64 64) rotate(180)" fill="none">
        <path d="M25,28H3a3,3,0,0,1-3-3V3A3,3,0,0,1,3,0H25a3,3,0,0,1,3,3V7a7,7,0,1,0,0,14v4A3,3,0,0,1,25,28Z" stroke="none"/>
        <path d="M 20.07069969177246 22.99990081787109 C 17.57597541809082 20.79947280883789 15.99970149993896 17.58040237426758 15.99970149993896 14.00040054321289 C 15.99970149993896 10.42025184631348 17.57653045654297 7.200706958770752 20.07196426391602 5.000000476837158 L 5.000001430511475 5.000000476837158 L 5.000001430511475 22.99990081787109 L 20.07069969177246 22.99990081787109 M 24.99930191040039 27.99990081787109 L 3.000601291656494 27.99990081787109 C 1.3460613489151 27.99990081787109 1.362609850730223e-06 26.65423965454102 1.362609850730223e-06 25.00020027160645 L 1.362609850730223e-06 2.999700307846069 C 1.362609850730223e-06 1.345660448074341 1.3460613489151 4.089355343239731e-07 3.000601291656494 4.089355343239731e-07 L 24.99930191040039 4.089355343239731e-07 C 26.65384101867676 4.089355343239731e-07 27.99990081787109 1.345660448074341 27.99990081787109 2.999700307846069 L 27.99990081787109 7.000200271606445 C 24.13870048522949 7.001200199127197 20.99970054626465 10.14103031158447 20.99970054626465 14.00040054321289 C 20.99970054626465 17.85983085632324 24.13998222351074 20.99970054626465 27.99990081787109 20.99970054626465 L 27.99990081787109 25.00020027160645 C 27.99990081787109 26.65423965454102 26.65384101867676 27.99990081787109 24.99930191040039 27.99990081787109 Z" stroke="none" fill="#08f"/>
      </g>
      <g id="Union_4" data-name="Union 4" transform="translate(28)" fill="none">
        <path d="M10.2,28a3,3,0,0,1-3-3V21A7.1,7.1,0,0,1,0,14,7.1,7.1,0,0,1,7.2,7V3a3,3,0,0,1,3-3H33a3,3,0,0,1,3,3V25a3,3,0,0,1-3,3Z" stroke="none"/>
        <path d="M 31 22.99990081787109 L 31 5.000000476837158 L 12.19999980926514 5.000000476837158 L 12.19999980926514 12.00020027160645 L 7.199999809265137 12.00020027160645 C 5.98691987991333 12.00020027160645 5 12.89749050140381 5 14.00040054321289 C 5 15.10282039642334 5.98691987991333 15.99970054626465 7.199999809265137 15.99970054626465 L 12.19999980926514 15.99970054626465 L 12.19999980926514 22.99990081787109 L 31 22.99990081787109 M 32.9994010925293 27.99990081787109 L 10.20059967041016 27.99990081787109 C 8.543700218200684 27.99990081787109 7.199999809265137 26.65710067749023 7.199999809265137 25.00020027160645 L 7.199999809265137 20.99970054626465 C 3.22379994392395 20.99970054626465 0 17.86590003967285 0 14.00040054321289 C 0 10.13400077819824 3.22379994392395 7.000200271606445 7.199999809265137 7.000200271606445 L 7.199999809265137 2.999700307846069 C 7.199999809265137 1.342800378799438 8.543700218200684 4.089355343239731e-07 10.20059967041016 4.089355343239731e-07 L 32.9994010925293 4.089355343239731e-07 C 34.65629959106445 4.089355343239731e-07 36 1.342800378799438 36 2.999700307846069 L 36 25.00020027160645 C 36 26.65710067749023 34.65629959106445 27.99990081787109 32.9994010925293 27.99990081787109 Z" stroke="none" fill="#061331"/>
      </g>
      <g id="Union_5" data-name="Union 5" transform="translate(36 64) rotate(180)" fill="none">
        <path d="M10.2,28a3,3,0,0,1-3-3V21A7.1,7.1,0,0,1,0,14,7.1,7.1,0,0,1,7.2,7V3a3,3,0,0,1,3-3H33a3,3,0,0,1,3,3V25a3,3,0,0,1-3,3Z" stroke="none"/>
        <path d="M 31 22.99990081787109 L 31 5.000000476837158 L 12.19999980926514 5.000000476837158 L 12.19999980926514 12.00020027160645 L 7.199999809265137 12.00020027160645 C 5.98691987991333 12.00020027160645 5 12.89749050140381 5 14.00040054321289 C 5 15.10282039642334 5.98691987991333 15.99970054626465 7.199999809265137 15.99970054626465 L 12.19999980926514 15.99970054626465 L 12.19999980926514 22.99990081787109 L 31 22.99990081787109 M 32.9994010925293 27.99990081787109 L 10.20059967041016 27.99990081787109 C 8.543700218200684 27.99990081787109 7.199999809265137 26.65710067749023 7.199999809265137 25.00020027160645 L 7.199999809265137 20.99970054626465 C 3.22379994392395 20.99970054626465 0 17.86590003967285 0 14.00040054321289 C 0 10.13400077819824 3.22379994392395 7.000200271606445 7.199999809265137 7.000200271606445 L 7.199999809265137 2.999700307846069 C 7.199999809265137 1.342800378799438 8.543700218200684 4.089355343239731e-07 10.20059967041016 4.089355343239731e-07 L 32.9994010925293 4.089355343239731e-07 C 34.65629959106445 4.089355343239731e-07 36 1.342800378799438 36 2.999700307846069 L 36 25.00020027160645 C 36 26.65710067749023 34.65629959106445 27.99990081787109 32.9994010925293 27.99990081787109 Z" stroke="none" fill="#061331"/>
      </g>
    </g>
  </g>
</svg>
